<?xml version="1.0" encoding="UTF-8" standalone="no"?>
<svg
   width="1600"
   height="500"
   viewBox="0 0 1600 500"
   version="1.1"
   id="svg30"
   sodipodi:docname="TradeTrim.source.svg"
   xmlns:inkscape="http://www.inkscape.org/namespaces/inkscape"
   xmlns:sodipodi="http://sodipodi.sourceforge.net/DTD/sodipodi-0.dtd"
   xmlns="http://www.w3.org/2000/svg"
   xmlns:svg="http://www.w3.org/2000/svg">
  <sodipodi:namedview
     id="namedview32"
     pagecolor="#ffffff"
     bordercolor="#000000"
     borderopacity="0.25"
     inkscape:showpageshadow="2"
     inkscape:pageopacity="0.0"
     inkscape:pagecheckerboard="0"
     inkscape:deskcolor="#d1d1d1" />
  <defs
     id="defs14">
    <linearGradient
       id="brand"
       x1="0"
       y1="0"
       x2="1"
       y2="0">
      <stop
         offset="0"
         stop-color="#00DCCB"
         id="stop2" />
      <stop
         offset="0.5"
         stop-color="#18CBE0"
         id="stop4" />
      <stop
         offset="1"
         stop-color="#405FD6"
         id="stop6" />
    </linearGradient>
    <linearGradient
       id="purple"
       x1="0"
       y1="0"
       x2="1"
       y2="1">
      <stop
         offset="0"
         stop-color="#5A72E0"
         id="stop9" />
      <stop
         offset="1"
         stop-color="#2E45A8"
         id="stop11" />
    </linearGradient>
  </defs>
  <g
     aria-label="TradeTrim emblem"
     id="g24">
    <path
       d="M72 211 L324 178 H455 V198 H328 L72 231 Z"
       fill="url(#brand)"
       id="path16" />
    <path
       d="M162 237 H245 V348 H220 V262 H162 Z"
       fill="#00DCCB"
       id="path18" />
    <path
       d="M316 237 H399 V262 H341 V348 H316 Z"
       fill="#405FD6"
       id="path20" />
    <circle
       cx="281"
       cy="275"
       r="20"
       fill="url(#purple)"
       id="circle22" />
  </g>
  <g
     font-family="Oxanium SemiBold"
     font-size="174"
     font-weight="600"
     letter-spacing="-5"
     id="g28">
    <g
       aria-label="TradeTrim"
       id="text26"
       style="fill:#eef2f7">
      <path
         d="M 514.176,230.254 V 210.94 h 96.918 v 19.314 H 573.336 V 331 H 551.934 V 230.254 Z"
         id="path34" />
      <path
         d="m 617.4038,331 v -80.04 q 6.264,-11.31 24.012,-11.31 h 18.27 l 9.222,6.786 v 10.962 h -22.794 q -5.916,0 -8.352,2.958 V 331 Z"
         id="path36" />
      <path
         d="m 702.36171,331 q -27.492,0 -27.492,-27.144 0,-27.144 27.492,-27.144 h 26.796 v -11.31 q 0,-8.004 -8.004,-8.004 h -36.888 v -10.962 l 9.048,-6.786 h 28.884 q 27.318,0 27.318,27.492 V 331 Z m -7.134,-25.752 q 0,8.004 8.004,8.004 h 25.926 v -20.706 h -25.926 q -8.004,0 -8.004,7.83 z"
         id="path38" />
      <path
         d="m 768.52786,303.508 v -36.366 q 0,-27.492 27.492,-27.492 h 29.58 v -37.41 h 20.358 V 331 h -49.938 q -27.492,0 -27.492,-27.492 z m 20.358,1.74 q 0,8.004 8.004,8.004 h 28.71 v -55.854 h -28.71 q -8.004,0 -8.004,8.004 z"
         id="path40" />
      <path
         d="m 865.66584,303.508 v -36.366 q 0,-27.492 27.492,-27.492 h 22.62 q 27.318,0 27.318,27.492 v 25.752 h -57.072 v 12.354 q 0,8.004 8.004,8.004 h 45.588 v 10.962 l -9.222,6.786 h -37.236 q -27.492,0 -27.492,-27.492 z m 20.358,-26.448 h 36.714 v -11.658 q 0,-8.004 -8.004,-8.004 h -20.706 q -8.004,0 -8.004,8.004 z"
         id="path42" />
      <path
         d="M 946.96976,230.254 V 210.94 h 96.91804 v 19.314 h -37.758 V 331 H 984.72776 V 230.254 Z"
         id="path44" />
      <path
         d="m 1050.1976,331 v -80.04 q 6.264,-11.31 24.012,-11.31 h 18.27 l 9.222,6.786 v 10.962 h -22.794 q -5.916,0 -8.352,2.958 V 331 Z"
         id="path46" />
      <path
         d="M 1113.7535,223.816 V 203.11 h 21.402 v 20.706 z m 0.522,107.184 v -91.35 h 20.358 V 331 Z"
         id="path48" />
      <path
         d="m 1155.7335,331 v -91.35 h 104.052 q 27.318,0 27.318,27.492 V 331 h -20.358 v -65.598 q 0,-8.004 -8.004,-8.004 h -27.144 V 331 h -20.358 v -73.602 h -35.148 V 331 Z"
         id="path50" />
    </g>
  </g>
</svg>
