<svg xmlns="http://www.w3.org/2000/svg" width="2048" height="640"><path fill="#25baae" d="M513.688 225.688c.91.02 1.82.03 2.75.05 21.88.38 43.71 1.13 65.56 2.26v25c-3.28-.18-6.56-.36-9.93-.54-17.2-.86-34.41-1.23-51.63-1.46l-2.51-.03c-84.66-1.1-168.05 10.39-262.49 22.97l-5.37.72c-31.97 4.27-63.92 8.59-95.86 13.04-.75.11-1.49.21-2.26.32-7 .97-13.99 1.95-20.99 2.94-12.97 1.83-25.94 3.58-38.96 5.04v-26c1.84-.26 3.68-.52 5.57-.79l8.23-1.17c.76-.11 1.51-.22 2.29-.33 10.62-1.51 21.23-3.04 31.85-4.59 39.17-5.71 78.37-11.25 117.6-16.6l7.2-.99c79.23-10.82 157.82-21 248.95-19.84"/><path fill="#EEF3F7" d="M1479 307c18.47-.07 36.94-.12 55.42-.16 8.57-.01 17.15-.03 25.73-.07 7.48-.03 14.96-.05 22.44-.05 3.95-.01 7.91-.02 11.87-.04 3.73-.02 7.46-.02 11.19-.02 1.37 0 2.73-.01 4.09-.02 10.58-.08 20.04.71 28.51 7.63 5.82 5.76 8.77 12.95 8.99 21.1.01 1.66 0 3.31-.01 4.96v2.75c0 2.98-.02 5.97-.03 8.95-.01 2.07-.01 4.15-.01 6.22-.01 5.45-.03 10.9-.05 16.34-.02 5.57-.03 11.13-.04 16.69-.02 10.91-.06 21.81-.1 32.72-3.54.02-7.08.04-10.63.05l-3.61.03c-1.73.01-3.46.01-5.19.02-.52 0-.52 0-3.16.01C1622 424 1622 424 1621 423c-.11-2.75-.15-5.48-.16-8.24 0-.86-.01-1.72-.01-2.61l-.03-5.65c-.01-2.97-.03-5.95-.05-8.92-.06-8.46-.12-16.92-.15-25.38-.02-5.17-.06-10.34-.1-15.51-.02-1.97-.03-3.95-.03-5.92 0-2.76-.03-5.52-.05-8.28 0-.82 0-1.64.01-2.48-.02-.75-.03-1.5-.04-2.28 0-.32 0-.32-.01-1.97-.53-2.44-1.39-3.28-3.38-4.76-13.08-2.62-26.66-1-40-1l-1 94h-25c-1-1-1-1-1.12-2.59v-4.5c0-.44 0-.44.01-2.65v-2.78c0-3.05 0-6.09.01-9.14 0-2.11.01-4.21.01-6.32 0-5.55.01-11.11.02-16.66.01-6.66.02-13.32.02-19.98.01-10.13.03-20.25.05-30.38l-44 1-1 94h-25c-1-1-1-1-1.12-2.93v-5.56c0-1.08 0-2.16.01-3.27v-3.43c0-3.11 0-6.22.01-9.34 0-3.24.01-6.49.01-9.74 0-6.16.01-12.31.02-18.47.01-7 .01-14.01.02-21.01.01-14.42.03-28.83.05-43.25m-422-48h26v165c-80.28 0-80.28 0-90.82-8.46-8.59-8.85-8.79-21.24-8.71-32.76 0-1.44-.01-2.88-.01-4.31-.01-2.99 0-5.98.02-8.97.02-3.8.01-7.6-.02-11.4q-.015-4.44 0-8.88c.01-1.4 0-2.8-.01-4.2-.05-11.37 1.3-21.71 9.49-30.3 6.4-5.34 13.66-7.86 21.94-7.83h2.89c.99 0 1.98.01 3 .01.92 0 1.84 0 2.78.01q5.13 0 10.26.03l23.19.06Zm-46.18 74.24c-1.19 2.55-1.07 4.74-1.08 7.54 0 .58-.01 1.16-.01 1.76-.01 1.91 0 3.82 0 5.74v3.99c0 2.79 0 5.58.01 8.37.01 3.57 0 7.15-.01 10.72-.01 2.75 0 5.5 0 8.25v3.95c-.01 1.84 0 3.68.01 5.53 0 1.04 0 2.09.01 3.17.26 2.83.62 4.42 2.25 6.74 2.76 1.83 4.94 2.25 8.22 2.23h2.48l2.66-.03c.9-.01 1.81-.01 2.74-.01 2.88-.01 5.77-.04 8.65-.07 1.96-.01 3.91-.01 5.87-.02 4.79-.02 9.59-.06 14.38-.1.02-9.24.04-18.48.05-27.72.01-4.29.01-8.58.03-12.87.01-4.14.01-8.27.01-12.41.01-1.58.01-3.16.02-4.75v-6.62c.01-.33.01-.33.01-2-.01-4.52-.01-4.52-1.12-5.63-2.66-.13-5.29-.19-7.95-.2-.4-.01-.4-.01-2.43-.02-1.71-.01-3.41-.02-5.12-.02-2.59-.01-5.19-.04-7.78-.07-1.66-.01-3.32-.01-4.98-.02-.77-.01-1.54-.02-2.33-.04-5.27.03-10.77.58-14.59 4.61m134.075-26.576c1.03-.01 2.06-.01 3.12-.02 2.16-.01 4.33-.01 6.49-.01 3.29-.01 6.57-.05 9.86-.08 2.11-.01 4.23-.01 6.34-.01.97-.02 1.94-.03 2.94-.05 9.7.07 18.5 2.65 25.63 9.44 6.8 8.14 7.88 16.55 7.82 26.74v2.49l-.03 9.15-.06 20.69h-73c1 19 1 19 4 24 2.73 1.36 4.95 1.16 8.01 1.2l1.86.03c2.03.03 4.07.06 6.1.08 1.41.02 2.82.04 4.23.07l11.14.15c3.78.05 7.57.1 11.36.16 7.43.11 14.86.21 22.3.31q.165 3.33.27 6.66c.04.63.07 1.25.11 1.89.08 3.48-.19 5.66-2.38 8.44-7.18 7.04-15.79 6.98-25.42 6.99-2.9-.04-5.8-.11-8.7-.19-2.92-.07-5.84-.08-8.76-.09-31.57-.33-31.57-.33-40.92-9.46-6.95-7.33-9.3-15.2-9.37-25.22 0-.58-.01-1.15-.01-1.75-.02-1.89-.02-3.79-.03-5.68 0-.66 0-1.31-.01-1.98-.01-3.47-.02-6.93-.02-10.39-.01-3.55-.03-7.09-.06-10.64-.02-2.75-.03-5.5-.03-8.26 0-1.3-.01-2.61-.02-3.91-.1-10.77.31-22.06 7.55-30.66 8.82-8.59 17.78-10.06 29.69-10.09m-8.89 25.34c-2 4-2 4-2 23h47v-20c-7.04-7.04-11.86-6.22-21.31-6.24-1.99-.01-3.98-.05-5.97-.08-12.39-.1-12.39-.1-17.72 3.32m-229.347-25.827c3.27.07 6.53.08 9.8.08 2.11.02 4.21.04 6.32.07.96.01 1.92.01 2.91.01 9.26.26 19.64 2.79 26.31 9.66 5.62 7.95 7.31 15.7 7.23 25.24v2.73c0 2.94-.02 5.89-.03 8.84-.01 2.05-.01 4.11-.01 6.16-.01 5.39-.03 10.77-.05 16.16-.02 5.51-.03 11.01-.04 16.51-.02 10.79-.06 21.58-.1 32.36-8.3.05-16.6.09-24.9.11-3.86.01-7.72.02-11.57.04-3.73.03-7.46.04-11.19.04-1.41.01-2.83.01-4.24.02-12.55.1-24.7-.47-34.92-8.67-7.08-7.29-8.55-16.92-8.62-26.66.16-10.47 1.88-19.16 9.44-26.88 11.32-9.72 26.83-8.38 40.75-8.18 1.87.01 3.75.02 5.62.04 4.54.03 9.09.08 13.63.14-.08-3.08-.19-6.16-.31-9.25-.02-.87-.05-1.74-.07-2.64-.15-3.59-.27-6.39-1.85-9.65-3.32-2.73-7.59-2.59-11.74-2.66l-2.91-.06c-.51-.01-.51-.01-3.11-.05-1.05-.02-2.11-.04-3.2-.07l-10.12-.18c-2.29-.04-4.58-.09-6.87-.13-5.61-.11-11.21-.21-16.82-.31-.73-5.79-1.36-11.35 1.39-16.68 7.72-7.81 19.08-6.38 29.27-6.14m-15.83 72.22c-1.45 2.81-1.2 5.89-1.2 8.98-.03.66-.05 1.32-.08 2-.02 3.72.25 5.32 2.35 8.54 2.69 2.67 4.06 3.21 7.73 3.2h2.24c.8-.01 1.6-.01 2.42-.02h2.48l7.86-.03c1.77-.01 3.54-.01 5.32-.02 4.35-.01 8.7-.03 13.05-.05v-27c-4.71-.07-9.43-.13-14.14-.16l-4.8-.06c-2.31-.04-4.63-.06-6.94-.07-.35-.01-.35-.01-2.14-.05-5.08 0-10.68.62-14.15 4.74"/><path fill="#3d5bcc" d="M409.1 302.873c.44 0 .44 0 2.68-.01.49 0 .49 0 2.96.01.51 0 .51 0 3.1-.01h8.43c2.94.01 5.88 0 8.81 .000016357421884549694 4.94 0 9.87 0 14.8.01 5.71 0 11.42 0 17.13-.01h23.47c3.26 0 6.52 0 9.78.01.98 0 1.96-.01 2.96-.01.89 0 1.77.01 2.68.01h2.34c1.76.13 1.76.13 2.76 1.13v31h-74v110h-33c-.02-18.37-.04-36.74-.05-55.1-.01-8.53-.01-17.06-.03-25.59-.01-7.43-.01-14.86-.01-22.29-.01-3.93-.01-7.87-.02-11.8v-11.11c0-1.36-.01-2.72-.01-4.08v-8.71c.21-3.93 1.7-3.45 5.22-3.45"/><path fill="#25b7ac" d="M212.1 302.873c.44 0 .44 0 2.68-.01.49 0 .49 0 2.96.01.51 0 .51 0 3.1-.01h8.43c2.94.01 5.88 0 8.81 .000016357421884549694 4.94 0 9.87 0 14.8.01 5.71 0 11.42 0 17.13-.01h23.47c3.26 0 6.52 0 9.78.01.98 0 1.96-.01 2.96-.01.89 0 1.77.01 2.68.01h2.34c1.76.13 1.76.13 2.76 1.13.1 1.82.12 3.65.12 5.47v1.75c0 1.94 0 3.89-.01 5.83v4.17c0 3.78 0 7.57-.01 11.35 0 3.95-.01 7.9-.01 11.85 0 7.48-.01 14.96-.02 22.45-.01 8.52-.01 17.03-.02 25.55-.01 17.53-.03 35.05-.05 52.58h-32c-.16-17.99-.16-17.99-1-109-12.21-.17-12.21-.17-74-1 0-32.13 0-32.13 5.1-32.13"/><path fill="#EEF3F7" d="M1212 270h124v25h-48v129h-27c-1-1-1-1-1.12-3.12v-6.13c0-1.2 0-2.41.01-3.61v-3.79c0-3.43 0-6.86.01-10.3 0-3.58.01-7.17.01-10.75 0-6.8.01-13.59.02-20.38.01-7.73.01-15.46.02-23.2.01-15.9.03-31.81.05-47.72h-48Zm-554 0h124v25h-48v129h-27c-1-1-1-1-1.12-3.12v-6.13c0-1.2 0-2.41.01-3.61v-3.79c0-3.43 0-6.86.01-10.3 0-3.58.01-7.17.01-10.75 0-6.8.01-13.59.02-20.38.01-7.73.01-15.46.02-23.2.01-15.9.03-31.81.05-47.72h-48Zm721.872 36.485c1.49-.03 2.98-.08 4.47-.14 9.18-.39 16.51-.09 23.8 5.96 3.54 5.13 2.68 10.76 1.86 16.69l-2.63.06c-3.25.08-6.5.17-9.75.26-1.4.04-2.8.08-4.2.11-19.28.44-19.28.44-22.42 3.57-.14 1.55-.14 1.55-.16 3.58-.01.38-.01.38-.03 2.32-.01.85-.01 1.7-.02 2.57 0 .45 0 .45-.03 2.69-.03 2.95-.05 5.9-.08 8.85l-.06 6.12c-.06 5.37-.11 10.75-.15 16.13-.05 5.48-.11 10.96-.17 16.45l-.3 32.29c-3.54.03-7.09.05-10.63.06-1.2 0-2.41.01-3.62.02-1.73.01-3.46.02-5.19.02-.52.01-.52.01-3.15.02-2.41-.12-2.41-.12-3.41-1.12-.11-1.3-.15-2.62-.17-3.93l-.03-2.57-.03-2.84-.03-2.98c-.1-9.08-.15-18.16-.19-27.24-.02-6.71-.08-13.42-.16-20.12-.06-5.29-.08-10.58-.1-15.87-.01-2.25-.03-4.49-.06-6.74-.05-3.15-.05-6.3-.04-9.45-.03-.92-.05-1.85-.07-2.8.08-6.27 1.75-9.4 6.11-13.89 2.17-1.92 4.25-3.31 6.89-4.5l2.45-1.15c6.83-2.56 14.11-2.31 21.3-2.43m-554 0c1.49-.03 2.98-.08 4.47-.14 9.18-.39 16.51-.09 23.8 5.96 3.54 5.13 2.68 10.76 1.86 16.69l-2.63.06c-3.25.08-6.5.17-9.75.26-1.4.04-2.8.08-4.2.11-19.28.44-19.28.44-22.42 3.57-.14 1.55-.14 1.55-.16 3.58-.01.38-.01.38-.03 2.32-.01.85-.01 1.7-.02 2.57 0 .45 0 .45-.03 2.69-.03 2.95-.05 5.9-.08 8.85l-.06 6.12c-.06 5.37-.11 10.75-.15 16.13-.05 5.48-.11 10.96-.17 16.45l-.3 32.29c-3.54.03-7.09.05-10.63.06-1.2 0-2.41.01-3.62.02-1.73.01-3.46.02-5.19.02-.52.01-.52.01-3.15.02-2.41-.12-2.41-.12-3.41-1.12-.11-1.3-.15-2.62-.17-3.93l-.03-2.57-.03-2.84-.03-2.98c-.1-9.08-.15-18.16-.19-27.24-.02-6.71-.08-13.42-.16-20.12-.06-5.29-.08-10.58-.1-15.87-.01-2.25-.03-4.49-.06-6.74-.05-3.15-.05-6.3-.04-9.45-.03-.92-.05-1.85-.07-2.8.08-6.27 1.75-9.4 6.11-13.89 2.17-1.92 4.25-3.31 6.89-4.5l2.45-1.15c6.83-2.56 14.11-2.31 21.3-2.43"/><path fill="#405fd6" d="M437 228h145v25H437Z"/><path fill="#EEF3F7" d="M1426 307h26v117h-25c-1-1-1-1-1.12-2.93v-5.56c0-1.08 0-2.16.01-3.27v-3.43c0-3.11 0-6.22.01-9.34 0-3.24.01-6.49.01-9.74 0-6.16.01-12.31.02-18.47.01-7 .01-14.01.02-21.01.01-14.42.03-28.83.05-43.25"/><path fill="#3f5dd2" d="M375 331c6.83 6.37 9.97 11.43 10.38 20.81-.17 7.82-2.38 13.34-7.69 19.07-6 5.49-12.58 7.29-20.69 7.12-7.52-1.07-13.06-4.24-18-10-4.26-6.72-5.82-13.07-5-21 1.96-6.9 5.9-13.35 11.99-17.29 9.36-4.92 20.21-5.15 29.01 1.29"/><path fill="#EEF3F7" d="M1426 260h27v26h-27Z"/></svg>