<svg xmlns="http://www.w3.org/2000/svg" width="2048" height="640"><path fill="#3f5dd2" d="M155 204q26.64-.135 53.28-.21c8.24-.02 16.49-.05 24.73-.09 7.19-.04 14.38-.07 21.57-.08 3.8 0 7.61-.01 11.41-.04 3.59-.03 7.17-.04 10.75-.03 1.32 0 2.63-.01 3.94-.03 8.11-.09 12.84.32 18.93 5.97.38.46.75.91 1.14 1.39.39.45.77.9 1.17 1.36 2.68 4.36 3.33 8.79 3.35 13.82.01.58.01 1.15.02 1.74.01 1.88.01 3.75.01 5.63 0 1.32.01 2.63.01 3.95.01 2.76.01 5.51.01 8.27-.01 3.51.01 7.02.03 10.53.01 2.72.02 5.44.01 8.16 0 1.3.01 2.59.02 3.89.06 8.39-.61 15.05-4.9 22.37-3.86 3.74-8.44 6.16-13.1 8.78-1.06.6-2.12 1.21-3.18 1.81-2.24 1.28-4.48 2.56-6.72 3.83-3.52 2-7.03 4.02-10.53 6.05-1.16.68-2.33 1.35-3.49 2.02-.56.33-1.13.66-1.71 1-2.68 1.55-5.35 3.09-8.03 4.63-.89.52-1.78 1.03-2.69 1.56-3.03 1.72-3.03 1.72-5.34 2.68-6.19 2.78-6.19 2.78-7.55 6.21-.36 2.73-.44 5.33-.41 8.09-.02.99-.05 1.98-.07 2.99-.03 2.08-.05 4.16-.04 6.24.01 3.2-.06 6.39-.14 9.58-.03 2.02-.05 4.05-.07 6.07-.01.48-.01.48-.05 2.9.02 2.42.08 4.6.64 6.96 2.18 1.42 2.18 1.42 5 2 1.92 1.03 3.82 2.08 5.7 3.17.27.15.27.15 1.65.94 1.78 1.02 3.56 2.05 5.34 3.08 1.87 1.08 3.75 2.16 5.63 3.24 1.28.74 2.57 1.49 3.86 2.23 3.79 2.19 7.6 4.34 11.42 6.48 2.37 1.31 4.73 2.64 7.09 3.98 1.11.62 2.22 1.24 3.34 1.85 7.44 4.1 14.12 7.88 17.11 16.2 1.11 4.21 1.11 8.28 1.06 12.61-.01.81-.01 1.62-.01 2.46-.01 2.56-.04 5.13-.07 7.7-.01 1.75-.01 3.5-.02 5.25-.02 4.27-.06 8.54-.1 12.81l17-1c.01-2.79.03-5.59.04-8.47.03-2.73.07-5.45.11-8.18.03-1.89.04-3.77.05-5.66 0-2.72.05-5.44.09-8.16 0-.83 0-1.67-.01-2.52.15-6.13 1.86-10.24 5.72-15.01 2.42-2 2.42-2 5.19-3.56.53-.31 1.07-.62 1.62-.94 1.28-.74 2.57-1.47 3.86-2.19 2.23-1.25 4.44-2.53 6.65-3.81 1.06-.62 2.12-1.23 3.18-1.85 2.81-1.62 5.61-3.26 8.38-4.94 5.41-3.25 10.38-5.95 16.47-7.76 6.32-2.11 11.2-3.99 14.65-9.95 4.21-13.57 4.43-31.47 0-45-3.88-7.32-12.26-9.53-19.66-11.82-5.22-1.72-9.78-4.68-14.43-7.55-2.49-1.53-5.01-2.99-7.53-4.47-.93-.54-1.85-1.09-2.8-1.65-2.26-1.32-4.52-2.61-6.8-3.89-1.16-.66-2.31-1.33-3.47-2-.93-.52-1.86-1.04-2.82-1.58-4.51-3.7-7.12-7.42-7.95-13.31-.23-3.98-.18-7.97-.13-11.96v-4.43c0-3.08.02-6.16.05-9.24.04-3.94.04-7.88.03-11.81 0-3.05.01-6.09.03-9.14.01-1.45.01-2.9.01-4.35 0-2.03.02-4.06.05-6.1l.03-3.49c.64-5.26 2.73-9.13 6.89-12.52.59-.49 1.18-.98 1.78-1.49 3.87-2.7 7.9-2.34 12.4-2.31h2.37c2.58 0 5.16 0 7.74.01 1.79 0 3.58.01 5.37.01 4.71 0 9.42.01 14.13.02 5.65.01 11.3.02 16.95.02 8.59.01 17.17.03 25.76.05v38h-55c1 25 1 25 5.72 30.01 2.14 1.02 4.14 1.86 6.34 2.68 1.13.51 2.26 1.02 3.38 1.55 2.33 1.1 4.67 2.14 7.03 3.16 5.2 2.29 10.03 5.21 14.89 8.13 2.38 1.43 4.79 2.82 7.19 4.22 1.82 1.08 3.64 2.16 5.45 3.25.49.3.99.59 1.5.9 1.51.91 3 1.83 4.5 2.75.88.54 1.77 1.09 2.68 1.65 5.13 3.76 7.31 8.57 8.32 14.7.1 2.26.16 4.5.16 6.76.01.66.01 1.32.02 2 .01 2.17.02 4.34.02 6.51.01.74.01 1.49.01 2.25.02 3.95.03 7.9.03 11.84.01 4.06.03 8.11.06 12.17.02 3.14.02 6.27.02 9.41.01 1.49.01 2.99.03 4.48.07 9.26 0 17.44-5.21 25.44-2.3 2.3-4.47 3.79-7.3 5.38-.25.14-.25.14-1.52.87-1.65.93-3.29 1.85-4.94 2.77-1.16.65-2.31 1.3-3.46 1.95-2.41 1.37-4.82 2.73-7.23 4.09-5.42 3.05-10.8 6.17-16.19 9.29l-8.04 4.65c-.89.51-1.78 1.02-2.69 1.55-2.77 1.59-2.77 1.59-4.64 2.31-2.09.9-3.52 1.67-5.13 3.28-1.01 3.46-.86 6.81-.76 10.39 0 1.02-.01 2.04-.01 3.09-.01 3.26.04 6.51.08 9.77.03 3.24.06 6.49.05 9.73 0 2.02.02 4.03.07 6.05.02 6.84-1.09 12.47-5.95 17.56-5.29 4.8-10.46 5.71-17.39 5.64h-2.37c-2.57 0-5.14-.02-7.71-.03-1.78-.01-3.57-.01-5.36-.01-4.69-.01-9.38-.03-14.08-.05-4.79-.02-9.58-.03-14.38-.04-9.39-.02-18.79-.06-28.19-.1.05-.74.1-1.48.15-2.25 3.42-53.94 3.42-53.94-3.56-64.03-5.65-6.13-13.95-8.37-21.76-10.51-5.7-1.65-10.55-4.76-15.55-7.89-2.38-1.47-4.81-2.84-7.23-4.23-15.41-9.18-15.41-9.18-18.05-17.09-.11-2.44-.17-4.84-.18-7.28 0-.37 0-.37-.02-2.24-.02-2.45-.03-4.89-.04-7.34 0-.83-.01-1.67-.01-2.53-.02-4.43-.04-8.86-.05-13.29-.01-4.57-.04-9.13-.08-13.7-.03-3.52-.03-7.04-.04-10.56 0-1.68-.01-3.36-.03-5.05-.18-17.4-.18-17.4 4.45-23.01 1.94-1.85 1.94-1.85 4-3.06.79-.48 1.58-.96 2.39-1.45.86-.49 1.72-.98 2.61-1.49.92-.54 1.83-1.09 2.78-1.64 3.08-1.82 6.18-3.59 9.28-5.36 2.3-1.31 4.59-2.63 6.88-3.95l1.76-1c6.82-3.91 13.6-7.88 20.38-11.85 1.46-.85 2.92-1.71 4.39-2.57.83-.48 1.66-.97 2.51-1.47q1.98-1.14 4.02-2.16l1-25H155Z"/><path fill="#25bdb1" d="M155 204q26.64-.135 53.28-.21c8.24-.02 16.49-.05 24.73-.09 7.19-.04 14.38-.07 21.57-.08 3.8 0 7.61-.01 11.41-.04 3.59-.03 7.17-.04 10.75-.03 1.32 0 2.63-.01 3.94-.03 8.11-.09 12.84.32 18.93 5.97.38.46.75.91 1.14 1.39.39.45.77.9 1.17 1.36 2.68 4.36 3.33 8.79 3.35 13.82.01.58.01 1.15.02 1.74.01 1.88.01 3.75.01 5.63 0 1.32.01 2.63.01 3.95.01 2.76.01 5.51.01 8.27-.01 3.51.01 7.02.03 10.53.01 2.72.02 5.44.01 8.16 0 1.3.01 2.59.02 3.89.06 8.39-.61 15.05-4.9 22.37-3.86 3.74-8.44 6.16-13.1 8.78-1.06.6-2.12 1.21-3.18 1.81-2.24 1.28-4.48 2.56-6.72 3.83-3.52 2-7.03 4.02-10.53 6.05-1.16.68-2.33 1.35-3.49 2.02-.56.33-1.13.66-1.71 1-2.17 1.25-4.33 2.5-6.5 3.75-1.49.86-2.98 1.73-4.47 2.59-1.78 1.01-3.58 1.97-5.42 2.87-4.53 2.25-7.21 3.86-8.98 8.71-.21.66-.42 1.31-.63 1.99-.56 1.52-1.12 3.04-1.69 4.56-.15.43-.15.43-.95 2.59-1.98 5.08-4.26 10.03-6.52 14.99-1.41 3.11-2.81 6.23-4.21 9.34l-.85 1.88c-2.98 6.64-5.92 13.29-8.84 19.95-.12.28-.12.28-.73 1.66L208 398c-.97-.72-1.92-1.45-2.88-2.19-.53-.4-1.06-.81-1.61-1.23-3.81-3.99-3.81-8.85-3.8-14.09-.01-.74-.01-1.48-.02-2.24-.02-2.43-.02-4.87-.03-7.3 0-1.7-.01-3.4-.02-5.1-.01-3.56-.01-7.12-.01-10.69 0-4.55-.03-9.09-.06-13.64-.02-3.51-.03-7.03-.03-10.54 0-1.67-.01-3.35-.02-5.03-.15-17.33-.15-17.33 4.48-22.95 1.94-1.85 1.94-1.85 4-3.06.79-.48 1.58-.96 2.39-1.45.86-.49 1.72-.98 2.61-1.49.92-.54 1.83-1.09 2.78-1.64 3.08-1.82 6.18-3.59 9.28-5.36 2.3-1.31 4.59-2.63 6.88-3.95l1.76-1c6.82-3.91 13.6-7.88 20.38-11.85 1.46-.85 2.92-1.71 4.39-2.57.83-.48 1.66-.97 2.51-1.47q1.98-1.14 4.02-2.16l1-25H155Z"/><path fill="#101922" d="M899.247 299.866c1.14 0 2.28-.01 3.45-.01h3.82c1.33 0 2.66-.01 3.99-.01 3.63-.01 7.27-.01 10.9-.01 2.27 0 4.54-.01 6.81-.01 7.93-.01 15.86-.01 23.79-.01 7.37 0 14.75-.01 22.12-.03 6.34-.01 12.68-.02 19.02-.02 3.78.01 7.57 0 11.35-.01 3.57-.01 7.13-.01 10.7.00027197265728773345 1.3 0 2.6 0 3.9-.01 12.27-.05 23.94.45 33.65 8.75 11.56 12.05 9.4 30.91 9.35 46.3v5.4l-.03 14.11c-.01 4.81-.01 9.62-.02 14.44-.01 9.42-.03 18.84-.05 28.25h-27c0-1.34 0-1.34-.04-8.12-.05-8.84-.12-17.69-.19-26.53-.05-5.37-.09-10.73-.11-16.1-.03-5.17-.07-10.34-.12-15.52-.02-1.97-.03-3.95-.03-5.93-.01-2.76-.04-5.52-.07-8.29v-2.48c-.01-.76-.03-1.51-.04-2.29 0-.32 0-.32-.01-1.98-.52-2.35-1.56-3.24-3.39-4.76-12.24-6.12-27.32-1.65-41-2v94h-26v-94h-45v94h-26c-.02-15.1-.04-30.21-.05-45.32 0-7.01-.01-14.03-.02-21.04-.01-6.11-.02-12.22-.02-18.33 0-3.24-.01-6.48-.01-9.72-.01-3.61-.01-7.22-.01-10.82 0-1.09-.01-2.17-.01-3.28v-5.55c.25-4 2.98-3.06 6.37-3.07"/><path fill="#3f5dd2" d="M1159.688 263.293c1.39-.02 2.79-.03 4.18-.05 2.9-.03 5.8-.04 8.7-.04 3.69 0 7.38-.07 11.07-.15 2.87-.05 5.74-.06 8.61-.06 1.36-.01 2.71-.03 4.07-.07 8.5-.21 14.03 1.05 20.43 6.84 1.11 1.06 2.18 2.14 3.25 3.24.17.16.17.16 1 1 .08 2.36.1 4.7.07 7.06-.01.66-.01 1.33-.02 2.01-.01 1.64-.03 3.28-.05 4.93-.41 0-.41 0-2.51.02-7.81.08-15.62.17-23.44.26-4.01.05-8.03.1-12.04.14-3.88.04-7.76.08-11.64.14-1.47.01-2.95.03-4.43.04-2.07.02-4.15.05-6.22.08h-1.84c-3.7.08-6.58.62-9.88 2.32-1.31 2.63-1.13 4.61-1.13 7.56v5.1c.01 1.76 0 3.52 0 5.28v6.45c.13 2.61.13 2.61 1.13 5.61 2.49.76 4.83 1.28 7.38 1.75.8.16 1.61.32 2.44.48 4.44.88 8.9 1.71 13.35 2.55 3.85.72 7.7 1.46 11.55 2.21 2.31.44 4.61.86 6.92 1.28 11.33 2.14 21.63 4.8 28.7 14.57 4.47 6.71 5.97 12.97 5.96 20.93.01.72.01 1.44.02 2.18v4.55c0 2.29.02 4.58.04 6.87.06 11.75-.91 21.71-9.36 30.63-8.9 8.38-20.62 8.52-32.17 8.64l-2.17.03c-3.77.05-7.55.08-11.32.1-3.86.02-7.72.11-11.58.2-3.01.07-6.01.09-9.02.09q-2.13.015-4.26.09c-9.59.28-16.89-1.37-24.13-8.03-2.93-3.31-3.31-6.43-3.16-10.75.17-2.16.45-4.23.81-6.37l2.62-.03c8.15-.08 16.3-.16 24.45-.26 4.19-.05 8.38-.1 12.57-.13 4.05-.04 8.09-.09 12.14-.14 1.54-.02 3.08-.03 4.62-.05 2.17-.01 4.33-.04 6.5-.07.63-.01 1.26-.01 1.91-.01 4.4-.08 9.21-.44 12.54-3.59 1.65-4.38 1.07-9.49 1.09-14.1.02-.57.02-.57.1-3.44.01-1.1.01-2.2.02-3.33.01-1 .03-2.01.04-3.04-.64-3-1.53-4.7-3.84-6.75-3.82-2.31-8.27-2.83-12.61-3.6-1.06-.2-2.12-.41-3.21-.62-3.37-.65-6.75-1.28-10.13-1.91-3.36-.63-6.71-1.26-10.07-1.91-2.09-.4-4.17-.79-6.26-1.17-9.82-1.88-19.61-4.43-25.88-12.7-8.57-12.88-7.94-30.86-5.91-45.65 1.94-9.65 6.06-17 14.31-22.5 8.37-4.17 16.56-4.67 25.69-4.71"/><path fill="#3e5dd2" d="M1293.894 299.664c2.73.02 5.47.02 8.2.01 26.39.04 26.39.04 36.66 8.82 8.54 8.91 8.84 20.31 8.74 31.89 0 1.46 0 2.92.01 4.38 0 3.05-.01 6.1-.04 9.14-.03 3.88-.02 7.76-.01 11.64.01 3.01 0 6.03-.01 9.04q-.015 2.145 0 4.29c.01 10.74-.58 20.7-7.64 29.37-8.19 7.98-18.4 9.07-29.26 9.09-1.09.01-2.19.02-3.32.02-2.31.01-4.62.02-6.94.02-2.35 0-4.7.01-7.05.04-3.42.03-6.83.04-10.25.05-1.04.01-2.07.03-3.14.04-10.03-.06-18.83-2.52-26.19-9.59-7.86-9.12-7.96-20.51-7.92-31.94v-4.07c-.01-2.84 0-5.67.01-8.5.01-3.61 0-7.22-.01-10.83q-.015-4.2 0-8.4c0-1.33 0-2.66-.01-3.98-.03-11.77.76-21.67 8.28-31.19 10.61-10.19 26.2-9.47 39.89-9.34m-19.89 26.34c-2.08 3.25-2.26 5.87-2.28 9.7l-.03 3.46c0 1.25 0 2.49.01 3.74-.01 1.28-.01 2.56-.02 3.85v8.05c.01 3.44-.01 6.87-.03 10.31-.02 2.64-.02 5.29-.02 7.94 0 1.27 0 2.53-.01 3.8-.01 1.77-.01 3.54 0 5.32v3.05c.44 3.27 1.42 5.14 3.38 7.78 4.29 2.02 8.43 2.3 13.12 2.3.33 0 .33 0 2.01.01 1.39.01 2.78.01 4.18-.0001816406250441105 2.11 0 4.23.02 6.34.05h4.09l1.89.03c4.51-.05 8.52-.94 12.37-3.39 2.5-2.64 2.25-5.28 2.26-8.79 0-.58 0-1.16.01-1.75 0-1.92 0-3.83-.01-5.74 0-1.33.01-2.66.01-4 0-2.79 0-5.58-.01-8.37q-.015-5.355 0-10.71.015-4.125 0-8.25c0-1.32 0-2.63.01-3.95 0-1.84 0-3.69-.01-5.53-.01-1.05-.01-2.1-.01-3.18-.26-2.77-.77-4.4-2.25-6.73-3.59-2.73-7.79-2.31-12.09-2.3-.78-.01-1.57-.01-2.37-.02h-4.95c-2.52 0-5.04-.02-7.55-.05h-4.82l-2.27-.03c-4.45.04-7.38.47-10.95 3.4"/><path fill="#3f5dd2" d="M1569.135 299.156c2.79.09 5.58.12 8.38.14 26.94.35 26.94.35 36.29 9.46 8.04 8.51 9.36 17.63 9.31 29v2.61c0 2.82-.01 5.65-.02 8.47v5.89l-.03 15.48c-.01 5.27-.01 10.54-.02 15.81-.01 10.32-.02 20.65-.05 30.98-8.95.07-17.9.13-26.86.16-4.16.01-8.32.04-12.47.07q-6.03.045-12.06.06c-1.53 0-3.06.01-4.58.03-12.33.13-22.49-.66-32.03-9.32-6.54-6.54-7.95-16.21-8.25-25.12.13-10.23 2.53-20.27 10-27.59 7.92-6.53 16.89-7.75 26.86-7.58.48 0 .48 0 2.91.01 3.04.02 6.07.06 9.11.1 2.07.01 4.15.03 6.22.04 5.05.03 10.1.08 15.15.14-.11-2.73-.24-5.45-.37-8.18l-.09-2.33c-.41-7.84-.41-7.84-2.54-11.49-3.07-1.94-5.53-2.26-9.13-2.32-1.02-.01-2.04-.03-3.09-.06-.55 0-.55 0-3.32-.03l-3.42-.06c-2.98-.05-5.97-.09-8.95-.13-3.05-.04-6.1-.09-9.15-.14-5.98-.1-11.96-.18-17.94-.26-.94-6.12-1.62-11.56 1.94-16.9 7.85-7.67 17.88-7.29 28.2-6.94m-14.14 71.84c-1.94 3.51-2.27 6.53-2.25 10.5 0 .92-.01 1.84-.01 2.78.33 3.42 1.03 6.55 3.58 8.97 4.59 2.04 9.44 1.9 14.36 1.89h2.19c1.52 0 3.04 0 4.56-.01 2.33 0 4.67 0 7 .01h6.56c4.9-.02 4.9-.02 6.01-1.14.09-1.92.11-3.85.1-5.78v-1.75l-.03-5.53c-.01-1.25-.01-2.49-.02-3.74-.01-3.07-.02-6.13-.05-9.2-5.17-.07-10.35-.12-15.53-.16l-5.28-.06c-2.53-.04-5.07-.06-7.6-.07-.4-.01-.4-.01-2.38-.05-4.56 0-7.5.39-11.21 3.34"/><path fill="#101922" d="M626 264h124v24h-48v129h-28V288h-48Z"/><path fill="#25bdb1" d="M343.684 203.886h2.37c2.58 0 5.16.01 7.74.02h5.37c4.71 0 9.42.01 14.13.02 5.65.02 11.3.02 16.95.03 8.58.01 17.17.03 25.76.04v38h-55c.16 4.13.16 4.13 1 25 10 7.16 10 7.16 16.25 9.26 1.75.74 1.75.74 2.75 2.74a70 70 0 0 1-2.64 5.61c-.29.55-.57 1.11-.86 1.68-.91 1.78-1.83 3.56-2.75 5.34-1.2 2.32-2.4 4.65-3.58 6.98-.29.55-.57 1.11-.86 1.69-2.1 4.15-3.82 8.31-5.31 12.7-8.71-4.08-17.15-8.62-25.5-13.37-.48-.26-.48-.26-2.86-1.57-.91-.52-1.81-1.04-2.74-1.58-.8-.45-1.6-.91-2.43-1.37-4.79-4.07-7.99-8.12-9.01-14.46-.28-3.99-.22-7.97-.16-11.97.01-1.48.01-2.95.01-4.43 0-3.07.03-6.15.07-9.22.05-3.93.06-7.86.06-11.79 0-3.04.02-6.08.04-9.12.01-1.45.01-2.9.02-4.35 0-2.03.03-4.05.06-6.08l.03-3.48c.66-5.26 2.75-9.13 6.91-12.52.58-.49 1.17-.98 1.78-1.49 3.86-2.69 7.9-2.33 12.4-2.31"/><path fill="#3f5dd2" d="M1421.176 299.355c2.13-.03 4.26-.08 6.39-.14 21.21-.67 21.21-.67 27.91 4.45 3.03 2.89 4.78 4.67 4.97 8.92-.03 1.25-.09 2.5-.16 3.75l-.06 1.95c-.06 1.57-.14 3.14-.23 4.72h-2.13c-6.63.02-13.27.06-19.9.13-3.41.03-6.82.06-10.24.06-3.29.01-6.58.03-9.88.08-1.25.01-2.51.02-3.76.01-11.03-.03-11.03-.03-14.36 2.42-3.39 4.54-2.42 11.36-2.35 16.77-.01 1.33-.01 2.65-.01 3.98 0 2.78.01 5.56.04 8.34.03 3.55.03 7.11.01 10.67-.01 2.74 0 5.48.01 8.22.01 1.31 0 2.62 0 3.93-.01 1.84.01 3.67.04 5.5.01 1.04.01 2.09.02 3.16.65 3.45 1.75 4.61 4.51 6.73 3.08 1.18 6.14 1.15 9.42 1.2l3.27.06c1.17.02 2.35.03 3.52.05l3.61.06c3.17.06 6.33.11 9.49.16 3.23.05 6.46.1 9.69.16 6.34.11 12.67.21 19 .31.82 5.85 1.48 11.38-1.51 16.68-9.07 8.36-22.66 6.36-34.17 6.1-2.42-.05-4.83-.04-7.25-.04-2.93 0-5.86-.04-8.78-.07-1.07-.01-2.14-.01-3.24-.02-9.96-.24-18.96-2.58-26.32-9.59-5.83-6.98-7.82-14.49-7.9-23.41-.01-.61-.02-1.23-.02-1.86-.02-2.03-.03-4.05-.04-6.08-.01-.7-.01-1.39-.02-2.11-.02-3.7-.03-7.4-.04-11.09-.01-3.79-.05-7.58-.09-11.36q-.03-4.41-.03-8.82c-.01-1.39-.02-2.79-.04-4.18-.14-10.89.59-22.4 8.63-30.69 11.99-9.63 27.43-8.97 42-9.11"/><path fill="#3f5ed4" d="M1648 252h26c.01 2 .01 2 .04 12.1.05 13.19.12 26.37.2 39.56.04 8 .08 15.99.11 23.99.02 6.97.05 13.94.1 20.91.02 3.69.04 7.38.05 11.07 0 3.48.02 6.95.05 10.43.01 1.27.02 2.54.02 3.81-.01 6.73.02 12.22 3.43 18.13 3.54 2.77 6.59 3.53 11 5v22c-12.43 0-21.72-1.33-30.91-9.75-7.51-7.91-10.22-17.34-10.21-28.1v-3.46c0-1.26 0-2.51.01-3.76v-4c0-3.6 0-7.2.01-10.8 0-3.77.01-7.53.01-11.3 0-7.13.01-14.26.02-21.39.01-8.12.01-16.24.02-24.35.01-16.7.03-33.39.05-50.09"/><path fill="#101922" d="M819.125 303.938c2.32 2.21 2.32 2.21 3.88 4.06.16.17.16.17 1 1 .07 2.37.09 4.7.06 7.06-.01.67-.01 1.33-.02 2.01-.01 1.65-.03 3.29-.04 4.93-1.01.02-2.01.03-3.05.05-3.73.05-7.47.13-11.21.21-1.61.04-3.23.07-4.84.09-2.33.03-4.65.08-6.98.14-.36 0-.36 0-2.17.02l-2.07.06-1.79.03c-2.98.63-4.58 1.39-6.89 3.4-.78 2.85-.69 5.67-.66 8.6-.01.44-.01.44-.04 2.67-.03 2.9-.02 5.81-.01 8.71-.02 2.02-.03 4.03-.05 6.04-.04 5.31-.05 10.61-.05 15.91-.01 5.41-.05 10.82-.08 16.23-.07 10.61-.1 21.23-.11 31.84h-26c-.1-13.19-.17-26.39-.21-39.58-.02-6.13-.05-12.26-.1-18.39-.04-5.91-.06-11.82-.07-17.74-.01-2.25-.03-4.51-.05-6.76-.03-3.16-.03-6.32-.03-9.48-.01-.94-.03-1.87-.04-2.83.03-5.73.78-8.8 4.5-13.22 11.22-10.77 44.48-15.36 57.12-5.06"/><path fill="#25bcb0" d="M263 268c.33.17.33.17 2 1-.23.51-.45 1.02-.69 1.54-2.39 5.37-4.77 10.75-7.15 16.12-.89 1.99-1.78 3.99-2.67 5.99-9.03 20.3-9.03 20.3-12.45 29.8-1.04 2.55-1.04 2.55-2.43 4.86-2.15 3.59-3.76 7.36-5.42 11.2-.36.83-.73 1.66-1.1 2.52-1.18 2.69-2.35 5.39-3.53 8.09-1.21 2.79-2.43 5.57-3.64 8.35-.81 1.86-1.63 3.71-2.44 5.57-3.5 8.02-7.04 16.03-10.6 24.02-.26.58-.52 1.15-.78 1.74-1.36 3.07-2.73 6.13-4.1 9.2-.97-.72-1.92-1.45-2.88-2.19-.53-.4-1.06-.81-1.61-1.23-3.81-3.99-3.81-8.85-3.8-14.09-.01-.74-.01-1.48-.02-2.24-.02-2.43-.02-4.87-.03-7.3 0-1.7-.01-3.4-.02-5.1-.01-3.56-.01-7.12-.01-10.69 0-4.55-.03-9.09-.06-13.64-.02-3.51-.03-7.03-.03-10.54 0-1.67-.01-3.35-.02-5.03-.15-17.33-.15-17.33 4.48-22.95 1.94-1.85 1.94-1.85 4-3.06.79-.48 1.58-.96 2.39-1.45.86-.49 1.72-.98 2.61-1.49.92-.54 1.83-1.09 2.78-1.64 3.08-1.82 6.18-3.59 9.28-5.36 2.3-1.31 4.59-2.62 6.88-3.94l1.76-1c4.11-2.36 8.19-4.76 12.26-7.18l3.33-1.98c1.6-.94 3.2-1.89 4.79-2.85 1.46-.88 2.92-1.75 4.39-2.61.83-.5 1.66-1 2.51-1.51.67-.3 1.33-.61 2.02-.93"/><path fill="#3e5dd1" d="M293 205c5.3 2.72 8.91 6.16 11.05 11.73.96 3.29 1.21 5.92 1.22 9.33.01.58.01 1.15.02 1.74.01 1.88.01 3.75.01 5.63 0 1.32.01 2.63.01 3.95.01 2.76.01 5.51.01 8.27-.01 3.51.01 7.02.03 10.53.01 2.72.02 5.44.01 8.16 0 1.3.01 2.59.02 3.89.06 8.39-.61 15.05-4.9 22.37-3.86 3.74-8.44 6.16-13.1 8.78-1.06.6-2.12 1.2-3.17 1.81-2.24 1.28-4.47 2.55-6.71 3.82-5.34 3.03-10.66 6.11-15.97 9.19-1.69.97-3.37 1.94-5.06 2.91-.53.31-1.06.61-1.61.93l-4.29 2.46a101 101 0 0 0-5.22 3.26c-.77.41-1.55.82-2.35 1.24l-3-1c3.71-8.6 7.43-17.19 11.16-25.78 1.21-2.76 2.41-5.52 3.6-8.29 1.37-3.18 2.76-6.35 4.15-9.51.52-1.2 1.04-2.39 1.55-3.59.72-1.66 1.45-3.32 2.18-4.98.41-.94.82-1.88 1.24-2.85l1.12-2h2c.11-1.03.22-2.06.34-3.12.53-3.65 1.67-6.66 3.21-10.03.26-.57.52-1.13.79-1.72.83-1.84 1.68-3.67 2.54-5.51.88-1.92 1.76-3.86 2.64-5.79.6-1.31 1.2-2.63 1.8-3.94 2.02-4.42 4-8.86 5.95-13.32.26-.58.51-1.16.77-1.76.98-2.24 1.95-4.47 2.92-6.71.67-1.52 1.33-3.03 1.99-4.55.38-.86.75-1.72 1.13-2.6C292 206 292 206 293 205"/><path fill="#3c59c7" d="M1486.531 299.867h5.17c1.79.01 3.58 0 5.37.00018749999998135536h6.54c2.39.13 2.39.13 3.39 1.13.09 1.51.12 3.02.12 4.53v2.96c0 1.08 0 2.16-.01 3.27v3.43c0 3.12 0 6.23-.01 9.34-.01 3.25-.01 6.49-.01 9.74 0 6.16-.01 12.31-.02 18.47-.01 7.01-.02 14.01-.02 21.02-.01 14.41-.03 28.83-.05 43.24h-27c-.02-15.1-.04-30.21-.05-45.32l-.03-21.04c-.01-6.11-.01-12.22-.02-18.34 0-3.23 0-6.47-.01-9.71 0-3.61-.01-7.22 0-10.83-.01-1.08-.01-2.16-.02-3.27.01-.98.01-1.96.01-2.96v-2.59c.26-4.09 3.21-3.07 6.65-3.07"/><path fill="#101922" d="M841 300h25v117h-26c-.02-15.11-.04-30.21-.05-45.32-.01-7.02-.01-14.03-.03-21.04-.01-6.12-.01-12.23-.01-18.34-.01-3.24-.01-6.47-.02-9.71v-10.83c-.01-1.08-.01-2.16-.01-3.27v-5.56C840 301 840 301 841 300"/><path fill="#3e5dd1" d="M520.148 294.598c5.01 3.8 8.94 8.37 10.85 14.4.87 7.36.59 13.98-4 20-4.44 4.83-9.56 8.43-16.16 9.28-7.48.31-13.93-1.78-19.52-6.82-4.77-5.28-6.73-11.15-6.59-18.18.78-6.55 3.3-11.81 8.15-16.28 7.8-6.08 18.48-7.48 27.27-2.4"/><path fill="#24baae" d="M131.148 294.602c5.22 3.94 9.67 8.84 10.85 15.4.98 7.77-.62 13.51-5 20-4.11 4.84-9.74 7.29-15.94 8.32-6.45.39-12.98-1.72-17.92-5.9-5.4-5.95-7.78-11.81-7.48-19.87 1-7.52 4.47-12.52 10.35-17.18 7.21-4.97 17.56-5.17 25.14-.77"/><path fill="#3e5dd1" d="M327 517c5.45 4.51 8.87 9.99 10 17 .44 6.76-1.26 11.59-5.25 17.02-4.03 4.55-8.43 7.7-14.61 8.22-7.9.17-13.91-.24-19.89-5.89-5.7-6.26-6.72-11.74-6.56-20.12.6-6.27 3.02-10.28 7.56-14.54 9.13-7.16 18.78-7.37 28.75-1.69"/><path fill="#25baaf" d="M325 141c5.77 4.09 9.95 8.18 11.5 15.28 1.05 7.03.07 12.68-3.76 18.7-4.16 5.34-8.83 8.45-15.57 9.43-7.36.36-13.21-.98-19.17-5.41-5.63-5.9-7.3-10.82-7.31-18.95.14-6.18 1.75-10.21 5.85-14.76 8.26-7.75 18.4-9.72 28.46-4.29"/><path fill="#405fd6" d="M1480 254h27v26h-27Z"/><path fill="#101922" d="M840 254h27v26h-27Z"/><path fill="#25bdb1" d="M267 456h27c-1.9 4.49-3.83 8.95-5.83 13.39-.82 1.84-1.63 3.68-2.44 5.53-1.33 3.04-2.71 6.06-4.11 9.08-.42.99-.84 1.97-1.27 2.99-.43.91-.87 1.82-1.31 2.76l-1.12 2.48C276 494 276 494 267 494Z"/><path fill="#405fd6" d="M415 207h1v35h-16c-1-2-1-2-.52-3.49.28-.59.57-1.17.86-1.77.32-.66.63-1.32.96-2 .35-.71.7-1.42 1.07-2.15.35-.73.71-1.46 1.07-2.22.75-1.54 1.51-3.08 2.27-4.62 1.16-2.37 2.31-4.74 3.47-7.12.73-1.49 1.46-2.99 2.19-4.48.35-.72.69-1.43 1.05-2.17.83-1.68 1.7-3.33 2.58-4.98"/></svg>